<svg width="197" height="203" viewBox="0 0 197 203" fill="none" xmlns="http://www.w3.org/2000/svg">
<mask id="mask0_14_17" style="mask-type:alpha" maskUnits="userSpaceOnUse" x="55" y="30" width="138" height="140">
<path d="M192.078 118.579V81.7391C192.078 43.9953 152.183 19.5909 118.58 36.78L83.8132 54.5646C47.7293 73.0229 46.9974 124.328 82.54 143.809L117.307 162.864C150.961 181.309 192.078 156.956 192.078 118.579Z" fill="#3B0D11" stroke="#020202"/>
</mask>
<g mask="url(#mask0_14_17)">
<rect x="-10" y="10" width="264" height="226" fill="#3B0D11"/>
<g filter="url(#filter0_i_14_17)">
<ellipse cx="2.06259" cy="3.98842" rx="2.06259" ry="3.98842" transform="matrix(0.844448 -0.535637 0.611562 0.791197 54.7781 37.3347)" fill="#1E1E1E"/>
<ellipse cx="2.06259" cy="3.98842" rx="2.06259" ry="3.98842" transform="matrix(0.844448 -0.535637 0.611562 0.791197 63.2833 33.4824)" fill="#1E1E1E"/>
<ellipse cx="2.06259" cy="3.98842" rx="2.06259" ry="3.98842" transform="matrix(0.844448 -0.535637 0.611562 0.791197 76.0409 42.4711)" fill="#1E1E1E"/>
<ellipse cx="2.06259" cy="3.98842" rx="2.06259" ry="3.98842" transform="matrix(0.844448 -0.535637 0.611562 0.791197 67.5358 48.8917)" fill="#1E1E1E"/>
<ellipse cx="2.06259" cy="3.98842" rx="2.06259" ry="3.98842" transform="matrix(0.844448 -0.535637 0.611562 0.791197 76.0409 28.346)" fill="#1E1E1E"/>
<ellipse cx="2.06259" cy="3.98842" rx="2.06259" ry="3.98842" transform="matrix(0.844448 -0.535637 0.611562 0.791197 59.0307 66.8691)" fill="#1E1E1E"/>
<ellipse cx="2.06259" cy="3.98842" rx="2.06259" ry="3.98842" transform="matrix(0.844448 -0.535637 0.611562 0.791197 50.5256 73.2897)" fill="#1E1E1E"/>
<ellipse cx="2.06259" cy="3.98842" rx="2.06259" ry="3.98842" transform="matrix(0.844448 -0.535637 0.611562 0.791197 59.0307 52.744)" fill="#1E1E1E"/>
<ellipse cx="2.06259" cy="3.98842" rx="2.06259" ry="3.98842" transform="matrix(0.844448 -0.535637 0.611562 0.791197 67.5358 63.0168)" fill="#1E1E1E"/>
<ellipse cx="2.06259" cy="3.98842" rx="2.06259" ry="3.98842" transform="matrix(0.844448 -0.535637 0.611562 0.791197 80.2935 72.0056)" fill="#1E1E1E"/>
<ellipse cx="2.06259" cy="3.98842" rx="2.06259" ry="3.98842" transform="matrix(0.844448 -0.535637 0.611562 0.791197 71.7884 78.4261)" fill="#1E1E1E"/>
<ellipse cx="2.06259" cy="3.98842" rx="2.06259" ry="3.98842" transform="matrix(0.844448 -0.535637 0.611562 0.791197 80.2935 57.8804)" fill="#1E1E1E"/>
<ellipse cx="2.06259" cy="3.98842" rx="2.06259" ry="3.98842" transform="matrix(0.844448 -0.535637 0.611562 0.791197 84.5461 37.3347)" fill="#1E1E1E"/>
<ellipse cx="2.06259" cy="3.98842" rx="2.06259" ry="3.98842" transform="matrix(0.844448 -0.535637 0.611562 0.791197 97.3037 46.3235)" fill="#1E1E1E"/>
<ellipse cx="2.06259" cy="3.98842" rx="2.06259" ry="3.98842" transform="matrix(0.844448 -0.535637 0.611562 0.791197 88.7986 52.744)" fill="#1E1E1E"/>
<ellipse cx="2.06259" cy="3.98842" rx="2.06259" ry="3.98842" transform="matrix(0.844448 -0.535637 0.611562 0.791197 97.3037 32.1983)" fill="#1E1E1E"/>
<ellipse cx="2.06259" cy="3.98842" rx="2.06259" ry="3.98842" transform="matrix(0.844448 -0.535637 0.611562 0.791197 105.809 42.4711)" fill="#1E1E1E"/>
<ellipse cx="2.06259" cy="3.98842" rx="2.06259" ry="3.98842" transform="matrix(0.844448 -0.535637 0.611562 0.791197 118.567 51.4599)" fill="#1E1E1E"/>
<ellipse cx="2.06259" cy="3.98842" rx="2.06259" ry="3.98842" transform="matrix(0.844448 -0.535637 0.611562 0.791197 110.061 57.8804)" fill="#1E1E1E"/>
<ellipse cx="2.06259" cy="3.98842" rx="2.06259" ry="3.98842" transform="matrix(0.844448 -0.535637 0.611562 0.791197 118.567 37.3347)" fill="#1E1E1E"/>
<ellipse cx="2.06259" cy="3.98842" rx="2.06259" ry="3.98842" transform="matrix(0.844448 -0.535637 0.611562 0.791197 88.7986 66.8691)" fill="#1E1E1E"/>
<ellipse cx="2.06259" cy="3.98842" rx="2.06259" ry="3.98842" transform="matrix(0.844448 -0.535637 0.611562 0.791197 101.556 75.8578)" fill="#1E1E1E"/>
<ellipse cx="2.06259" cy="3.98842" rx="2.06259" ry="3.98842" transform="matrix(0.844448 -0.535637 0.611562 0.791197 93.0512 82.2784)" fill="#1E1E1E"/>
<ellipse cx="2.06259" cy="3.98842" rx="2.06259" ry="3.98842" transform="matrix(0.844448 -0.535637 0.611562 0.791197 101.556 61.7327)" fill="#1E1E1E"/>
<ellipse cx="2.06259" cy="3.98842" rx="2.06259" ry="3.98842" transform="matrix(0.844448 -0.535637 0.611562 0.791197 110.061 72.0056)" fill="#1E1E1E"/>
<ellipse cx="2.06259" cy="3.98842" rx="2.06259" ry="3.98842" transform="matrix(0.844448 -0.535637 0.611562 0.791197 122.819 80.9943)" fill="#1E1E1E"/>
<ellipse cx="2.06259" cy="3.98842" rx="2.06259" ry="3.98842" transform="matrix(0.844448 -0.535637 0.611562 0.791197 114.314 87.4148)" fill="#1E1E1E"/>
<ellipse cx="2.06259" cy="3.98842" rx="2.06259" ry="3.98842" transform="matrix(0.844448 -0.535637 0.611562 0.791197 122.819 66.8691)" fill="#1E1E1E"/>
<ellipse cx="2.06259" cy="3.98842" rx="2.06259" ry="3.98842" transform="matrix(0.844448 -0.535637 0.611562 0.791197 47.6905 86.1307)" fill="#1E1E1E"/>
<ellipse cx="2.06259" cy="3.98842" rx="2.06259" ry="3.98842" transform="matrix(0.844448 -0.535637 0.611562 0.791197 60.4482 95.1194)" fill="#1E1E1E"/>
<ellipse cx="2.06259" cy="3.98842" rx="2.06259" ry="3.98842" transform="matrix(0.844448 -0.535637 0.611562 0.791197 51.9431 101.54)" fill="#1E1E1E"/>
<ellipse cx="2.06259" cy="3.98842" rx="2.06259" ry="3.98842" transform="matrix(0.844448 -0.535637 0.611562 0.791197 60.4482 80.9943)" fill="#1E1E1E"/>
<ellipse cx="2.06259" cy="3.98842" rx="2.06259" ry="3.98842" transform="matrix(0.844448 -0.535637 0.611562 0.791197 51.9431 115.665)" fill="#1E1E1E"/>
<ellipse cx="2.06259" cy="3.98842" rx="2.06259" ry="3.98842" transform="matrix(0.844448 -0.535637 0.611562 0.791197 64.7008 124.654)" fill="#1E1E1E"/>
<ellipse cx="2.06259" cy="3.98842" rx="2.06259" ry="3.98842" transform="matrix(0.844448 -0.535637 0.611562 0.791197 56.1957 131.074)" fill="#1E1E1E"/>
<ellipse cx="2.06259" cy="3.98842" rx="2.06259" ry="3.98842" transform="matrix(0.844448 -0.535637 0.611562 0.791197 64.7008 110.529)" fill="#1E1E1E"/>
<ellipse cx="2.06259" cy="3.98842" rx="2.06259" ry="3.98842" transform="matrix(0.844448 -0.535637 0.611562 0.791197 68.9533 89.983)" fill="#1E1E1E"/>
<ellipse cx="2.06259" cy="3.98842" rx="2.06259" ry="3.98842" transform="matrix(0.844448 -0.535637 0.611562 0.791197 81.711 98.9717)" fill="#1E1E1E"/>
<ellipse cx="2.06259" cy="3.98842" rx="2.06259" ry="3.98842" transform="matrix(0.844448 -0.535637 0.611562 0.791197 73.2059 105.392)" fill="#1E1E1E"/>
<ellipse cx="2.06259" cy="3.98842" rx="2.06259" ry="3.98842" transform="matrix(0.844448 -0.535637 0.611562 0.791197 81.711 84.8466)" fill="#1E1E1E"/>
<ellipse cx="2.06259" cy="3.98842" rx="2.06259" ry="3.98842" transform="matrix(0.844448 -0.535637 0.611562 0.791197 90.2161 95.1194)" fill="#1E1E1E"/>
<ellipse cx="2.06259" cy="3.98842" rx="2.06259" ry="3.98842" transform="matrix(0.844448 -0.535637 0.611562 0.791197 102.974 104.108)" fill="#1E1E1E"/>
<ellipse cx="2.06259" cy="3.98842" rx="2.06259" ry="3.98842" transform="matrix(0.844448 -0.535637 0.611562 0.791197 94.4687 110.529)" fill="#1E1E1E"/>
<ellipse cx="2.06259" cy="3.98842" rx="2.06259" ry="3.98842" transform="matrix(0.844448 -0.535637 0.611562 0.791197 102.974 89.983)" fill="#1E1E1E"/>
<ellipse cx="2.06259" cy="3.98842" rx="2.06259" ry="3.98842" transform="matrix(0.844448 -0.535637 0.611562 0.791197 73.2059 119.517)" fill="#1E1E1E"/>
<ellipse cx="2.06259" cy="3.98842" rx="2.06259" ry="3.98842" transform="matrix(0.844448 -0.535637 0.611562 0.791197 85.9636 128.506)" fill="#1E1E1E"/>
<ellipse cx="2.06259" cy="3.98842" rx="2.06259" ry="3.98842" transform="matrix(0.844448 -0.535637 0.611562 0.791197 77.4585 134.927)" fill="#1E1E1E"/>
<ellipse cx="2.06259" cy="3.98842" rx="2.06259" ry="3.98842" transform="matrix(0.844448 -0.535637 0.611562 0.791197 85.9636 114.381)" fill="#1E1E1E"/>
<ellipse cx="2.06259" cy="3.98842" rx="2.06259" ry="3.98842" transform="matrix(0.844448 -0.535637 0.611562 0.791197 94.4687 124.654)" fill="#1E1E1E"/>
<ellipse cx="2.06259" cy="3.98842" rx="2.06259" ry="3.98842" transform="matrix(0.844448 -0.535637 0.611562 0.791197 107.226 133.643)" fill="#1E1E1E"/>
<ellipse cx="2.06259" cy="3.98842" rx="2.06259" ry="3.98842" transform="matrix(0.844448 -0.535637 0.611562 0.791197 98.7213 140.063)" fill="#1E1E1E"/>
<ellipse cx="2.06259" cy="3.98842" rx="2.06259" ry="3.98842" transform="matrix(0.844448 -0.535637 0.611562 0.791197 107.226 119.517)" fill="#1E1E1E"/>
<ellipse cx="2.06259" cy="3.98842" rx="2.06259" ry="3.98842" transform="matrix(0.844448 -0.535637 0.611562 0.791197 114.314 98.9717)" fill="#1E1E1E"/>
<ellipse cx="2.06259" cy="3.98842" rx="2.06259" ry="3.98842" transform="matrix(0.844448 -0.535637 0.611562 0.791197 127.072 107.96)" fill="#1E1E1E"/>
<ellipse cx="2.06259" cy="3.98842" rx="2.06259" ry="3.98842" transform="matrix(0.844448 -0.535637 0.611562 0.791197 118.567 114.381)" fill="#1E1E1E"/>
<ellipse cx="2.06259" cy="3.98842" rx="2.06259" ry="3.98842" transform="matrix(0.844448 -0.535637 0.611562 0.791197 127.072 93.8353)" fill="#1E1E1E"/>
<ellipse cx="2.06259" cy="3.98842" rx="2.06259" ry="3.98842" transform="matrix(0.844448 -0.535637 0.611562 0.791197 135.577 104.108)" fill="#1E1E1E"/>
<ellipse cx="2.06259" cy="3.98842" rx="2.06259" ry="3.98842" transform="matrix(0.844448 -0.535637 0.611562 0.791197 148.334 113.097)" fill="#1E1E1E"/>
<ellipse cx="2.06259" cy="3.98842" rx="2.06259" ry="3.98842" transform="matrix(0.844448 -0.535637 0.611562 0.791197 139.829 119.517)" fill="#1E1E1E"/>
<ellipse cx="2.06259" cy="3.98842" rx="2.06259" ry="3.98842" transform="matrix(0.844448 -0.535637 0.611562 0.791197 148.334 98.9717)" fill="#1E1E1E"/>
<ellipse cx="2.06259" cy="3.98842" rx="2.06259" ry="3.98842" transform="matrix(0.844448 -0.535637 0.611562 0.791197 118.567 128.506)" fill="#1E1E1E"/>
<ellipse cx="2.06259" cy="3.98842" rx="2.06259" ry="3.98842" transform="matrix(0.844448 -0.535637 0.611562 0.791197 131.324 137.495)" fill="#1E1E1E"/>
<ellipse cx="2.06259" cy="3.98842" rx="2.06259" ry="3.98842" transform="matrix(0.844448 -0.535637 0.611562 0.791197 122.819 143.915)" fill="#1E1E1E"/>
<ellipse cx="2.06259" cy="3.98842" rx="2.06259" ry="3.98842" transform="matrix(0.844448 -0.535637 0.611562 0.791197 131.324 123.37)" fill="#1E1E1E"/>
<ellipse cx="2.06259" cy="3.98842" rx="2.06259" ry="3.98842" transform="matrix(0.844448 -0.535637 0.611562 0.791197 139.829 133.643)" fill="#1E1E1E"/>
<ellipse cx="2.06259" cy="3.98842" rx="2.06259" ry="3.98842" transform="matrix(0.844448 -0.535637 0.611562 0.791197 152.587 142.631)" fill="#1E1E1E"/>
<ellipse cx="2.06259" cy="3.98842" rx="2.06259" ry="3.98842" transform="matrix(0.844448 -0.535637 0.611562 0.791197 144.082 149.052)" fill="#1E1E1E"/>
<ellipse cx="2.06259" cy="3.98842" rx="2.06259" ry="3.98842" transform="matrix(0.844448 -0.535637 0.611562 0.791197 152.587 128.506)" fill="#1E1E1E"/>
<ellipse cx="2.06259" cy="3.98842" rx="2.06259" ry="3.98842" transform="matrix(0.844448 -0.535637 0.611562 0.791197 156.84 107.96)" fill="#1E1E1E"/>
<ellipse cx="2.06259" cy="3.98842" rx="2.06259" ry="3.98842" transform="matrix(0.844448 -0.535637 0.611562 0.791197 169.597 116.949)" fill="#1E1E1E"/>
<ellipse cx="2.06259" cy="3.98842" rx="2.06259" ry="3.98842" transform="matrix(0.844448 -0.535637 0.611562 0.791197 161.092 123.37)" fill="#1E1E1E"/>
<ellipse cx="2.06259" cy="3.98842" rx="2.06259" ry="3.98842" transform="matrix(0.844448 -0.535637 0.611562 0.791197 169.597 102.824)" fill="#1E1E1E"/>
<ellipse cx="2.06259" cy="3.98842" rx="2.06259" ry="3.98842" transform="matrix(0.844448 -0.535637 0.611562 0.791197 178.102 113.097)" fill="#1E1E1E"/>
<ellipse cx="2.06259" cy="3.98842" rx="2.06259" ry="3.98842" transform="matrix(0.844448 -0.535637 0.611562 0.791197 190.86 122.086)" fill="#1E1E1E"/>
<ellipse cx="2.06259" cy="3.98842" rx="2.06259" ry="3.98842" transform="matrix(0.844448 -0.535637 0.611562 0.791197 182.355 128.506)" fill="#1E1E1E"/>
<ellipse cx="2.06259" cy="3.98842" rx="2.06259" ry="3.98842" transform="matrix(0.844448 -0.535637 0.611562 0.791197 190.86 107.96)" fill="#1E1E1E"/>
<ellipse cx="2.06259" cy="3.98842" rx="2.06259" ry="3.98842" transform="matrix(0.844448 -0.535637 0.611562 0.791197 161.092 137.495)" fill="#1E1E1E"/>
<ellipse cx="2.06259" cy="3.98842" rx="2.06259" ry="3.98842" transform="matrix(0.844448 -0.535637 0.611562 0.791197 173.85 146.484)" fill="#1E1E1E"/>
<ellipse cx="2.06259" cy="3.98842" rx="2.06259" ry="3.98842" transform="matrix(0.844448 -0.535637 0.611562 0.791197 165.345 152.904)" fill="#1E1E1E"/>
<ellipse cx="2.06259" cy="3.98842" rx="2.06259" ry="3.98842" transform="matrix(0.844448 -0.535637 0.611562 0.791197 173.85 132.358)" fill="#1E1E1E"/>
<ellipse cx="2.06259" cy="3.98842" rx="2.06259" ry="3.98842" transform="matrix(0.844448 -0.535637 0.611562 0.791197 182.355 142.631)" fill="#1E1E1E"/>
<ellipse cx="2.06259" cy="3.98842" rx="2.06259" ry="3.98842" transform="matrix(0.844448 -0.535637 0.611562 0.791197 186.607 158.041)" fill="#1E1E1E"/>
<ellipse cx="2.06259" cy="3.98842" rx="2.06259" ry="3.98842" transform="matrix(0.844448 -0.535637 0.611562 0.791197 98.7213 151.62)" fill="#1E1E1E"/>
<ellipse cx="2.06259" cy="3.98842" rx="2.06259" ry="3.98842" transform="matrix(0.844448 -0.535637 0.611562 0.791197 111.479 160.609)" fill="#1E1E1E"/>
<ellipse cx="2.06259" cy="3.98842" rx="2.06259" ry="3.98842" transform="matrix(0.844448 -0.535637 0.611562 0.791197 98.7213 167.029)" fill="#1E1E1E"/>
<ellipse cx="2.06259" cy="3.98842" rx="2.06259" ry="3.98842" transform="matrix(0.844448 -0.535637 0.611562 0.791197 111.479 146.484)" fill="#1E1E1E"/>
<ellipse cx="2.06259" cy="3.98842" rx="2.06259" ry="3.98842" transform="matrix(0.844448 -0.535637 0.611562 0.791197 119.984 156.756)" fill="#1E1E1E"/>
<ellipse cx="2.06259" cy="3.98842" rx="2.06259" ry="3.98842" transform="matrix(0.844448 -0.535637 0.611562 0.791197 128.489 165.745)" fill="#1E1E1E"/>
<ellipse cx="2.06259" cy="3.98842" rx="2.06259" ry="3.98842" transform="matrix(0.844448 -0.535637 0.611562 0.791197 132.742 151.62)" fill="#1E1E1E"/>
<ellipse cx="2.06259" cy="3.98842" rx="2.06259" ry="3.98842" transform="matrix(0.844448 -0.535637 0.611562 0.791197 141.247 160.609)" fill="#1E1E1E"/>
<ellipse cx="2.06259" cy="3.98842" rx="2.06259" ry="3.98842" transform="matrix(0.844448 -0.535637 0.611562 0.791197 149.752 169.597)" fill="#1E1E1E"/>
<ellipse cx="2.06259" cy="3.98842" rx="2.06259" ry="3.98842" transform="matrix(0.844448 -0.535637 0.611562 0.791197 154.005 155.472)" fill="#1E1E1E"/>
<ellipse cx="2.06259" cy="3.98842" rx="2.06259" ry="3.98842" transform="matrix(0.844448 -0.535637 0.611562 0.791197 158.257 165.745)" fill="#1E1E1E"/>
<ellipse cx="2.06259" cy="3.98842" rx="2.06259" ry="3.98842" transform="matrix(0.844448 -0.535637 0.611562 0.791197 175.267 160.609)" fill="#1E1E1E"/>
<ellipse cx="2.06259" cy="3.98842" rx="2.06259" ry="3.98842" transform="matrix(0.844448 -0.535637 0.611562 0.791197 59.0307 147.768)" fill="#1E1E1E"/>
<ellipse cx="2.06259" cy="3.98842" rx="2.06259" ry="3.98842" transform="matrix(0.844448 -0.535637 0.611562 0.791197 50.5256 154.188)" fill="#1E1E1E"/>
<ellipse cx="2.06259" cy="3.98842" rx="2.06259" ry="3.98842" transform="matrix(0.844448 -0.535637 0.611562 0.791197 67.5358 143.915)" fill="#1E1E1E"/>
<ellipse cx="2.06259" cy="3.98842" rx="2.06259" ry="3.98842" transform="matrix(0.844448 -0.535637 0.611562 0.791197 80.2935 152.904)" fill="#1E1E1E"/>
<ellipse cx="2.06259" cy="3.98842" rx="2.06259" ry="3.98842" transform="matrix(0.844448 -0.535637 0.611562 0.791197 87.3811 145.199)" fill="#1E1E1E"/>
<ellipse cx="2.06259" cy="3.98842" rx="2.06259" ry="3.98842" transform="matrix(0.844448 -0.535637 0.611562 0.791197 71.7884 159.325)" fill="#1E1E1E"/>
<ellipse cx="2.06259" cy="3.98842" rx="2.06259" ry="3.98842" transform="matrix(0.844448 -0.535637 0.611562 0.791197 50.5256 168.313)" fill="#1E1E1E"/>
<ellipse cx="2.06259" cy="3.98842" rx="2.06259" ry="3.98842" transform="matrix(0.844448 -0.535637 0.611562 0.791197 63.2833 163.177)" fill="#1E1E1E"/>
<ellipse cx="2.06259" cy="3.98842" rx="2.06259" ry="3.98842" transform="matrix(0.844448 -0.535637 0.611562 0.791197 84.5461 168.313)" fill="#1E1E1E"/>
<ellipse cx="2.06259" cy="3.98842" rx="2.06259" ry="3.98842" transform="matrix(0.844448 -0.535637 0.611562 0.791197 161.092 42.4711)" fill="#1E1E1E"/>
<ellipse cx="2.06259" cy="3.98842" rx="2.06259" ry="3.98842" transform="matrix(0.844448 -0.535637 0.611562 0.791197 173.85 51.4599)" fill="#1E1E1E"/>
<ellipse cx="2.06259" cy="3.98842" rx="2.06259" ry="3.98842" transform="matrix(0.844448 -0.535637 0.611562 0.791197 165.345 57.8804)" fill="#1E1E1E"/>
<ellipse cx="2.06259" cy="3.98842" rx="2.06259" ry="3.98842" transform="matrix(0.844448 -0.535637 0.611562 0.791197 173.85 37.3347)" fill="#1E1E1E"/>
<ellipse cx="2.06259" cy="3.98842" rx="2.06259" ry="3.98842" transform="matrix(0.844448 -0.535637 0.611562 0.791197 182.355 47.6075)" fill="#1E1E1E"/>
<ellipse cx="2.06259" cy="3.98842" rx="2.06259" ry="3.98842" transform="matrix(0.844448 -0.535637 0.611562 0.791197 186.607 63.0168)" fill="#1E1E1E"/>
<ellipse cx="2.06259" cy="3.98842" rx="2.06259" ry="3.98842" transform="matrix(0.844448 -0.535637 0.611562 0.791197 134.159 72.0056)" fill="#1E1E1E"/>
<ellipse cx="2.06259" cy="3.98842" rx="2.06259" ry="3.98842" transform="matrix(0.844448 -0.535637 0.611562 0.791197 146.917 80.9943)" fill="#1E1E1E"/>
<ellipse cx="2.06259" cy="3.98842" rx="2.06259" ry="3.98842" transform="matrix(0.844448 -0.535637 0.611562 0.791197 138.412 87.4148)" fill="#1E1E1E"/>
<ellipse cx="2.06259" cy="3.98842" rx="2.06259" ry="3.98842" transform="matrix(0.844448 -0.535637 0.611562 0.791197 146.917 66.8691)" fill="#1E1E1E"/>
<ellipse cx="2.06259" cy="3.98842" rx="2.06259" ry="3.98842" transform="matrix(0.844448 -0.535637 0.611562 0.791197 155.422 77.142)" fill="#1E1E1E"/>
<ellipse cx="2.06259" cy="3.98842" rx="2.06259" ry="3.98842" transform="matrix(0.844448 -0.535637 0.611562 0.791197 168.18 86.1307)" fill="#1E1E1E"/>
<ellipse cx="2.06259" cy="3.98842" rx="2.06259" ry="3.98842" transform="matrix(0.844448 -0.535637 0.611562 0.791197 159.675 92.5512)" fill="#1E1E1E"/>
<ellipse cx="2.06259" cy="3.98842" rx="2.06259" ry="3.98842" transform="matrix(0.844448 -0.535637 0.611562 0.791197 168.18 72.0056)" fill="#1E1E1E"/>
<ellipse cx="2.06259" cy="3.98842" rx="2.06259" ry="3.98842" transform="matrix(0.844448 -0.535637 0.611562 0.791197 176.685 66.8691)" fill="#1E1E1E"/>
<ellipse cx="2.06259" cy="3.98842" rx="2.06259" ry="3.98842" transform="matrix(0.844448 -0.535637 0.611562 0.791197 149.752 33.4824)" fill="#1E1E1E"/>
<ellipse cx="2.06259" cy="3.98842" rx="2.06259" ry="3.98842" transform="matrix(0.844448 -0.535637 0.611562 0.791197 141.247 39.903)" fill="#1E1E1E"/>
<ellipse cx="2.06259" cy="3.98842" rx="2.06259" ry="3.98842" transform="matrix(0.844448 -0.535637 0.611562 0.791197 132.742 57.8804)" fill="#1E1E1E"/>
<ellipse cx="2.06259" cy="3.98842" rx="2.06259" ry="3.98842" transform="matrix(0.844448 -0.535637 0.611562 0.791197 132.742 43.7552)" fill="#1E1E1E"/>
<ellipse cx="2.06259" cy="3.98842" rx="2.06259" ry="3.98842" transform="matrix(0.844448 -0.535637 0.611562 0.791197 141.247 54.0281)" fill="#1E1E1E"/>
<ellipse cx="2.06259" cy="3.98842" rx="2.06259" ry="3.98842" transform="matrix(0.844448 -0.535637 0.611562 0.791197 154.005 63.0168)" fill="#1E1E1E"/>
<ellipse cx="2.06259" cy="3.98842" rx="2.06259" ry="3.98842" transform="matrix(0.844448 -0.535637 0.611562 0.791197 154.005 48.8917)" fill="#1E1E1E"/>
<ellipse cx="2.06259" cy="3.98842" rx="2.06259" ry="3.98842" transform="matrix(0.844448 -0.535637 0.611562 0.791197 176.685 80.9943)" fill="#1E1E1E"/>
<ellipse cx="2.06259" cy="3.98842" rx="2.06259" ry="3.98842" transform="matrix(0.844448 -0.535637 0.611562 0.791197 189.443 89.983)" fill="#1E1E1E"/>
<ellipse cx="2.06259" cy="3.98842" rx="2.06259" ry="3.98842" transform="matrix(0.844448 -0.535637 0.611562 0.791197 180.937 96.4035)" fill="#1E1E1E"/>
<ellipse cx="2.06259" cy="3.98842" rx="2.06259" ry="3.98842" transform="matrix(0.844448 -0.535637 0.611562 0.791197 189.443 75.8578)" fill="#1E1E1E"/>
</g>
</g>
<path d="M94.7159 19.046C95.9508 15.4411 101.049 15.4411 102.284 19.046L108.463 37.0816C109.017 38.6988 110.537 39.7852 112.247 39.7852H131.772C135.698 39.7852 137.274 44.8513 134.042 47.0789L118.616 57.7087C117.139 58.7262 116.52 60.6022 117.102 62.2987L123.078 79.7456C124.328 83.3939 120.2 86.5239 117.025 84.3357L100.77 73.1344C99.4031 72.1927 97.5969 72.1927 96.2303 73.1344L79.9753 84.3357C76.7998 86.5239 72.6717 83.3939 73.9215 79.7456L79.8984 62.2987C80.4796 60.6022 79.8607 58.7262 78.384 57.7087L62.9583 47.0789C59.7255 44.8513 61.302 39.7852 65.228 39.7852H84.7532C86.4627 39.7852 87.9832 38.6988 88.5373 37.0816L94.7159 19.046Z" fill="#7BC242"/>
<path d="M101.811 19.208L107.99 37.2436C108.613 39.063 110.324 40.2852 112.247 40.2852H131.772C135.207 40.2852 136.587 44.718 133.758 46.6672L118.332 57.297C116.671 58.4417 115.975 60.5522 116.629 62.4608L122.605 79.9076C123.699 83.0999 120.087 85.8386 117.308 83.9239L101.053 72.7227C99.516 71.6633 97.484 71.6633 95.9466 72.7227L79.6916 83.9239C76.913 85.8386 73.3009 83.0999 74.3945 79.9076L80.3714 62.4608C81.0253 60.5522 80.329 58.4417 78.6677 57.2969L63.242 46.6672C60.4134 44.718 61.7928 40.2852 65.228 40.2852H84.7532C86.6764 40.2852 88.387 39.063 89.0103 37.2436L95.1889 19.208C96.2695 16.0538 100.731 16.0538 101.811 19.208Z" stroke="#37535D" stroke-opacity="0.5"/>
<g opacity="0.5" filter="url(#filter1_d_14_17)">
<line x1="98.4926" y1="24.0857" x2="94.4926" y2="47.0857" stroke="#37535D"/>
</g>
<line opacity="0.5" x1="90.8419" y1="54.4743" x2="66.8419" y2="46.4743" stroke="#37535D"/>
<path opacity="0.5" d="M105.5 55.5L116.435 78.754" stroke="#37535D"/>
<line opacity="0.5" x1="98.3536" y1="60.3536" x2="79.3536" y2="79.3536" stroke="#37535D"/>
<line opacity="0.5" x1="127.043" y1="45.4981" x2="104.043" y2="47.4981" stroke="#37535D"/>
<defs>
<filter id="filter0_i_14_17" x="8" y="21" width="238" height="200" filterUnits="userSpaceOnUse" color-interpolation-filters="sRGB">
<feFlood flood-opacity="0" result="BackgroundImageFix"/>
<feBlend mode="normal" in="SourceGraphic" in2="BackgroundImageFix" result="shape"/>
<feColorMatrix in="SourceAlpha" type="matrix" values="0 0 0 0 0 0 0 0 0 0 0 0 0 0 0 0 0 0 127 0" result="hardAlpha"/>
<feOffset dy="4"/>
<feGaussianBlur stdDeviation="2"/>
<feComposite in2="hardAlpha" operator="arithmetic" k2="-1" k3="1"/>
<feColorMatrix type="matrix" values="0 0 0 0 0 0 0 0 0 0 0 0 0 0 0 0 0 0 0.25 0"/>
<feBlend mode="normal" in2="shape" result="effect1_innerShadow_14_17"/>
</filter>
<filter id="filter1_d_14_17" x="90" y="24" width="12.9852" height="31.1713" filterUnits="userSpaceOnUse" color-interpolation-filters="sRGB">
<feFlood flood-opacity="0" result="BackgroundImageFix"/>
<feColorMatrix in="SourceAlpha" type="matrix" values="0 0 0 0 0 0 0 0 0 0 0 0 0 0 0 0 0 0 127 0" result="hardAlpha"/>
<feOffset dy="4"/>
<feGaussianBlur stdDeviation="2"/>
<feComposite in2="hardAlpha" operator="out"/>
<feColorMatrix type="matrix" values="0 0 0 0 0 0 0 0 0 0 0 0 0 0 0 0 0 0 0.25 0"/>
<feBlend mode="normal" in2="BackgroundImageFix" result="effect1_dropShadow_14_17"/>
<feBlend mode="normal" in="SourceGraphic" in2="effect1_dropShadow_14_17" result="shape"/>
</filter>
</defs>
</svg>
